<svg id="Layer_1" data-name="Layer 1" xmlns="http://www.w3.org/2000/svg" viewBox="0 0 931.99 267"><title>Artboard 1</title><path d="M55.63,85.29l3.71-6.67L220.28,241l-3,3.71H213.6ZM229.92,244.75H81.58V267H229.92Z" style="fill:#ff4081"/><path d="M255.13,183.19l-3.71,6.67L91.23,26l2.23-3.71H97.9Zm-37.83,61.56L229.92,267,311.5,133.5h-26Z" style="fill:#9c27b0"/><path d="M229.92,22.25H81.58V0H229.92Zm-12.61,0h-4.45L54.88,181l3.71,6.67L219.53,26Z" style="fill:#00bcd4"/><path d="M93.45,22.25,18.54,145.37,0,133.5,81.58,0Zm126.08,3-2.22-3H204.7L63.78,71.2l-5.93,9.64Z" style="fill:#ffc107"/><path d="M94.19,244.75,81.58,267,0,133.5H26Zm2.23-59.33V22.25h-3L89,29.67V185.42H57.85l4.45,7.42H89v43.76l5.19,8.16h2.23V192.83H249.2l4.45-7.42Z" style="fill:#ff5722"/><path d="M249.94,75.65,92.71,242.53l1.48,2.22h6.68l152-161.68-40,161.68h5.19l4.45-7.42L259.58,90.48Zm35.6,57.85L217.31,22.25,229.92,0,311.5,133.5Z" style="fill:#03a9f4"/><text transform="translate(348.67 178.13)" style="font-size:120px;font-family:Montserrat-Bold, Montserrat;font-weight:700">REACTQL</text></svg>